<svg xmlns="http://www.w3.org/2000/svg" width="400" height="530" viewBox="0 0 400 530">
  <defs>
    <linearGradient id="wall" x1="0" y1="0" x2="0" y2="1">
      <stop offset="0%" stop-color="#c8b8a0"/>
      <stop offset="100%" stop-color="#b0a088"/>
    </linearGradient>
    <radialGradient id="lamp" cx="0.5" cy="0.2" r="0.4">
      <stop offset="0%" stop-color="#f0e8d0" stop-opacity="0.5"/>
      <stop offset="100%" stop-color="#c8b8a0" stop-opacity="0"/>
    </radialGradient>
    <linearGradient id="floor" x1="0" y1="0" x2="0" y2="1">
      <stop offset="0%" stop-color="#8a7a60"/>
      <stop offset="100%" stop-color="#6a5a40"/>
    </linearGradient>
  </defs>
  <rect width="400" height="530" fill="url(#wall)"/>
  <rect width="400" height="530" fill="url(#lamp)"/>
  <rect x="120" y="40" width="160" height="200" rx="2" fill="#d8d0c0" opacity="0.3"/>
  <rect x="125" y="45" width="150" height="190" fill="#a09888" opacity="0.2"/>
  <rect y="360" width="400" height="170" fill="url(#floor)"/>
  <rect x="30" y="280" width="140" height="250" rx="4" fill="#7a6a50" opacity="0.6"/>
  <rect x="35" y="285" width="130" height="80" rx="2" fill="#9a8a70" opacity="0.3"/>
  <rect x="250" y="200" width="100" height="330" rx="6" fill="#6a5a42" opacity="0.5"/>
  <rect x="255" y="210" width="90" height="120" rx="3" fill="#8a7a60" opacity="0.3"/>
  <ellipse cx="300" cy="170" rx="35" ry="45" fill="#6a8a50" opacity="0.4"/>
  <ellipse cx="305" cy="165" rx="30" ry="38" fill="#7a9a60" opacity="0.3"/>
  <circle cx="200" cy="80" r="15" fill="#f0e8d0" opacity="0.5"/>
  <line x1="200" y1="0" x2="200" y2="65" stroke="#8a8a80" stroke-width="1" opacity="0.3"/>
</svg>
