<svg xmlns="http://www.w3.org/2000/svg" width="400" height="530" viewBox="0 0 400 530">
  <defs>
    <linearGradient id="sky" x1="0" y1="0" x2="0" y2="1">
      <stop offset="0%" stop-color="#1a2a4a"/>
      <stop offset="40%" stop-color="#4a6a8a"/>
      <stop offset="65%" stop-color="#8aaabe"/>
    </linearGradient>
    <linearGradient id="water" x1="0" y1="0" x2="0" y2="1">
      <stop offset="0%" stop-color="#5a8aaa"/>
      <stop offset="100%" stop-color="#2a4a6a"/>
    </linearGradient>
    <filter id="soft">
      <feGaussianBlur stdDeviation="2"/>
    </filter>
  </defs>
  <rect width="400" height="530" fill="url(#sky)"/>
  <path d="M0 200 L60 160 L130 190 L180 140 L240 180 L300 130 L350 170 L400 150 L400 300 L0 300Z" fill="#5a7a9a" opacity="0.6" filter="url(#soft)"/>
  <path d="M0 240 L80 210 L150 230 L220 200 L280 225 L340 195 L400 220 L400 300 L0 300Z" fill="#3a5a7a" opacity="0.8"/>
  <rect y="290" width="400" height="240" fill="url(#water)"/>
  <rect y="290" width="400" height="8" fill="#8aaabe" opacity="0.3"/>
  <rect y="320" width="400" height="2" fill="#8aaabe" opacity="0.15"/>
  <rect y="360" width="400" height="2" fill="#8aaabe" opacity="0.1"/>
  <rect y="410" width="400" height="2" fill="#6a8aaa" opacity="0.08"/>
  <path d="M0 480 Q100 470 200 475 Q300 468 400 478 L400 530 L0 530Z" fill="#1a3a5a" opacity="0.4"/>
</svg>
