<svg xmlns="http://www.w3.org/2000/svg" width="400" height="530" viewBox="0 0 400 530">
  <defs>
    <linearGradient id="sky" x1="0" y1="0" x2="0" y2="1">
      <stop offset="0%" stop-color="#2b4162"/>
      <stop offset="35%" stop-color="#8b6a3e"/>
      <stop offset="55%" stop-color="#d4956b"/>
      <stop offset="70%" stop-color="#e8b87a"/>
    </linearGradient>
    <linearGradient id="ground" x1="0" y1="0" x2="0" y2="1">
      <stop offset="0%" stop-color="#6b7c4e"/>
      <stop offset="100%" stop-color="#3a4a2a"/>
    </linearGradient>
    <radialGradient id="sun" cx="0.7" cy="0.52" r="0.3">
      <stop offset="0%" stop-color="#ffeebb" stop-opacity="0.9"/>
      <stop offset="60%" stop-color="#e8b87a" stop-opacity="0.3"/>
      <stop offset="100%" stop-color="#d4956b" stop-opacity="0"/>
    </radialGradient>
    <filter id="soft">
      <feGaussianBlur stdDeviation="3"/>
    </filter>
  </defs>
  <rect width="400" height="530" fill="url(#sky)"/>
  <ellipse cx="280" cy="275" rx="120" ry="100" fill="url(#sun)" filter="url(#soft)"/>
  <path d="M0 320 Q80 260 160 290 Q240 250 320 280 Q360 270 400 290 L400 530 L0 530Z" fill="#5a6b42" opacity="0.7"/>
  <path d="M0 360 Q100 320 200 340 Q300 310 400 350 L400 530 L0 530Z" fill="url(#ground)"/>
  <path d="M0 400 Q50 380 120 395 Q200 375 280 390 Q340 380 400 400 L400 530 L0 530Z" fill="#2d3a1e" opacity="0.5"/>
  <rect y="460" width="400" height="70" fill="#1a2510" opacity="0.3"/>
</svg>
