<svg xmlns="http://www.w3.org/2000/svg" width="400" height="530" viewBox="0 0 400 530">
  <defs>
    <linearGradient id="sky" x1="0" y1="0" x2="0" y2="1">
      <stop offset="0%" stop-color="#2a3040"/>
      <stop offset="50%" stop-color="#4a5060"/>
      <stop offset="100%" stop-color="#7a6a60"/>
    </linearGradient>
    <linearGradient id="bldg" x1="0" y1="0" x2="0" y2="1">
      <stop offset="0%" stop-color="#4a4a50"/>
      <stop offset="100%" stop-color="#3a3a40"/>
    </linearGradient>
  </defs>
  <rect width="400" height="530" fill="url(#sky)"/>
  <rect x="20" y="120" width="60" height="410" fill="#3a3a42"/>
  <rect x="25" y="140" width="12" height="16" rx="1" fill="#8a8a60" opacity="0.5"/>
  <rect x="43" y="140" width="12" height="16" rx="1" fill="#8a8a60" opacity="0.3"/>
  <rect x="25" y="170" width="12" height="16" rx="1" fill="#8a8a60" opacity="0.4"/>
  <rect x="43" y="170" width="12" height="16" rx="1" fill="#8a8a60" opacity="0.6"/>
  <rect x="25" y="200" width="12" height="16" rx="1" fill="#8a8a60" opacity="0.3"/>
  <rect x="100" y="80" width="80" height="450" fill="url(#bldg)"/>
  <rect x="110" y="100" width="14" height="18" rx="1" fill="#9a9a70" opacity="0.4"/>
  <rect x="130" y="100" width="14" height="18" rx="1" fill="#9a9a70" opacity="0.6"/>
  <rect x="150" y="100" width="14" height="18" rx="1" fill="#9a9a70" opacity="0.3"/>
  <rect x="110" y="130" width="14" height="18" rx="1" fill="#9a9a70" opacity="0.5"/>
  <rect x="130" y="130" width="14" height="18" rx="1" fill="#9a9a70" opacity="0.3"/>
  <rect x="150" y="130" width="14" height="18" rx="1" fill="#9a9a70" opacity="0.7"/>
  <rect x="200" y="160" width="70" height="370" fill="#4a4a52"/>
  <rect x="210" y="180" width="10" height="14" rx="1" fill="#8a8a60" opacity="0.5"/>
  <rect x="230" y="180" width="10" height="14" rx="1" fill="#8a8a60" opacity="0.4"/>
  <rect x="250" y="180" width="10" height="14" rx="1" fill="#8a8a60" opacity="0.6"/>
  <rect x="290" y="200" width="50" height="330" fill="#3a3a44"/>
  <rect x="300" y="220" width="10" height="14" rx="1" fill="#9a9a70" opacity="0.4"/>
  <rect x="320" y="220" width="10" height="14" rx="1" fill="#9a9a70" opacity="0.5"/>
  <rect x="350" y="250" width="45" height="280" fill="#4a4a50"/>
  <rect y="460" width="400" height="70" fill="#2a2a30"/>
  <rect x="50" y="480" width="300" height="4" rx="2" fill="#5a5a58" opacity="0.4"/>
  <circle cx="80" cy="490" r="3" fill="#e0a040" opacity="0.6"/>
  <circle cx="320" cy="490" r="3" fill="#e0a040" opacity="0.5"/>
</svg>
